<svg width="17" height="16" viewBox="0 0 17 16" fill="none" xmlns="http://www.w3.org/2000/svg">
<g clip-path="url(#clip0_6837_4776)">
<path fill-rule="evenodd" clip-rule="evenodd" d="M8.1224 0.666016C8.49059 0.666016 8.78906 0.964492 8.78906 1.33268V2.66602C8.78906 3.03421 8.49059 3.33268 8.1224 3.33268C7.75421 3.33268 7.45573 3.03421 7.45573 2.66602V1.33268C7.45573 0.964492 7.75421 0.666016 8.1224 0.666016ZM2.91759 2.79455C3.17794 2.5342 3.60005 2.5342 3.8604 2.79455L4.80321 3.73736C5.06356 3.9977 5.06356 4.41981 4.80321 4.68016C4.54286 4.94051 4.12075 4.94051 3.8604 4.68016L2.91759 3.73736C2.65724 3.47701 2.65724 3.0549 2.91759 2.79455ZM13.3272 2.79455C13.5875 3.0549 13.5875 3.47701 13.3272 3.73735L12.3844 4.68016C12.124 4.94051 11.7019 4.94051 11.4416 4.68016C11.1812 4.41981 11.1812 3.9977 11.4416 3.73736L12.3844 2.79455C12.6447 2.5342 13.0668 2.5342 13.3272 2.79455ZM8.1224 5.33268C6.64964 5.33268 5.45573 6.52659 5.45573 7.99935C5.45573 9.47211 6.64964 10.666 8.1224 10.666C9.59516 10.666 10.7891 9.47211 10.7891 7.99935C10.7891 6.52659 9.59516 5.33268 8.1224 5.33268ZM4.1224 7.99935C4.1224 5.79021 5.91326 3.99935 8.1224 3.99935C10.3315 3.99935 12.1224 5.79021 12.1224 7.99935C12.1224 10.2085 10.3315 11.9993 8.1224 11.9993C5.91326 11.9993 4.1224 10.2085 4.1224 7.99935ZM0.789062 7.99935C0.789062 7.63116 1.08754 7.33268 1.45573 7.33268H2.78906C3.15725 7.33268 3.45573 7.63116 3.45573 7.99935C3.45573 8.36754 3.15725 8.66602 2.78906 8.66602H1.45573C1.08754 8.66602 0.789062 8.36754 0.789062 7.99935ZM12.7891 7.99935C12.7891 7.63116 13.0875 7.33268 13.4557 7.33268H14.7891C15.1573 7.33268 15.4557 7.63116 15.4557 7.99935C15.4557 8.36754 15.1573 8.66602 14.7891 8.66602H13.4557C13.0875 8.66602 12.7891 8.36754 12.7891 7.99935ZM4.80321 11.3213C5.06356 11.5816 5.06356 12.0037 4.80321 12.2641L3.8604 13.2069C3.60005 13.4672 3.17794 13.4672 2.91759 13.2069C2.65724 12.9465 2.65724 12.5244 2.91759 12.2641L3.8604 11.3213C4.12075 11.0609 4.54286 11.0609 4.80321 11.3213ZM11.4416 11.3213C11.7019 11.0609 12.124 11.0609 12.3844 11.3213L13.3272 12.2641C13.5875 12.5244 13.5875 12.9465 13.3272 13.2069C13.0668 13.4672 12.6447 13.4672 12.3844 13.2069L11.4416 12.2641C11.1812 12.0037 11.1812 11.5816 11.4416 11.3213ZM8.1224 12.666C8.49059 12.666 8.78906 12.9645 8.78906 13.3327V14.666C8.78906 15.0342 8.49059 15.3327 8.1224 15.3327C7.75421 15.3327 7.45573 15.0342 7.45573 14.666V13.3327C7.45573 12.9645 7.75421 12.666 8.1224 12.666Z" fill="#898989"/>
</g>
<defs>
<clipPath id="clip0_6837_4776">
<rect width="16" height="16" fill="white" transform="translate(0.123047)"/>
</clipPath>
</defs>
</svg>
