<svg width="17" height="16" viewBox="0 0 17 16" fill="none" xmlns="http://www.w3.org/2000/svg">
<g clip-path="url(#clip0_6837_4774)">
<path fill-rule="evenodd" clip-rule="evenodd" d="M8.1224 1.99935C4.80869 1.99935 2.1224 4.68564 2.1224 7.99935C2.1224 11.3131 4.80869 13.9993 8.1224 13.9993C8.85878 13.9993 9.45573 13.4024 9.45573 12.666V12.3327C9.45573 12.3172 9.45573 12.3019 9.45572 12.2869C9.45565 12.0219 9.4556 11.8256 9.47854 11.6513C9.63608 10.4547 10.5777 9.51303 11.7743 9.3555C11.9486 9.33255 12.1449 9.3326 12.4099 9.33267C12.425 9.33268 12.4402 9.33268 12.4557 9.33268H12.7891C13.5254 9.33268 14.1224 8.73573 14.1224 7.99935C14.1224 4.68564 11.4361 1.99935 8.1224 1.99935ZM0.789062 7.99935C0.789062 3.94926 4.07231 0.666016 8.1224 0.666016C12.1725 0.666016 15.4557 3.94926 15.4557 7.99935C15.4557 9.47211 14.2618 10.666 12.7891 10.666H12.4557C12.1249 10.666 12.0241 10.6675 11.9484 10.6774C11.35 10.7562 10.8792 11.227 10.8005 11.8253C10.7905 11.901 10.7891 12.0019 10.7891 12.3327V12.666C10.7891 14.1388 9.59516 15.3327 8.1224 15.3327C4.07231 15.3327 0.789062 12.0494 0.789062 7.99935ZM5.45573 4.66602C5.45573 3.92964 6.05268 3.33268 6.78906 3.33268C7.52544 3.33268 8.1224 3.92964 8.1224 4.66602C8.1224 5.4024 7.52544 5.99935 6.78906 5.99935C6.05268 5.99935 5.45573 5.4024 5.45573 4.66602ZM9.45573 5.33268C9.45573 4.5963 10.0527 3.99935 10.7891 3.99935C11.5254 3.99935 12.1224 4.5963 12.1224 5.33268C12.1224 6.06906 11.5254 6.66602 10.7891 6.66602C10.0527 6.66602 9.45573 6.06906 9.45573 5.33268ZM3.45573 7.99935C3.45573 7.26297 4.05268 6.66602 4.78906 6.66602C5.52544 6.66602 6.1224 7.26297 6.1224 7.99935C6.1224 8.73573 5.52544 9.33268 4.78906 9.33268C4.05268 9.33268 3.45573 8.73573 3.45573 7.99935Z" fill="#808080"/>
</g>
<defs>
<clipPath id="clip0_6837_4774">
<rect width="16" height="16" fill="white" transform="translate(0.123047)"/>
</clipPath>
</defs>
</svg>
