<svg width="40" height="40" viewBox="0 0 40 40" fill="none" xmlns="http://www.w3.org/2000/svg">
<path d="M14.7002 26L20.4242 20.024C20.7482 19.676 21.0242 19.352 21.2522 19.052C21.4802 18.752 21.6542 18.452 21.7742 18.152C21.8942 17.852 21.9542 17.54 21.9542 17.216C21.9542 16.988 21.9122 16.766 21.8282 16.55C21.7442 16.334 21.6182 16.142 21.4502 15.974C21.2822 15.806 21.0782 15.674 20.8382 15.578C20.5982 15.47 20.3222 15.416 20.0102 15.416C19.5662 15.416 19.1822 15.524 18.8582 15.74C18.5462 15.944 18.3002 16.238 18.1202 16.622C17.9522 17.006 17.8682 17.45 17.8682 17.954H15.3482C15.3482 17.054 15.5282 16.244 15.8882 15.524C16.2482 14.804 16.7762 14.234 17.4722 13.814C18.1802 13.382 19.0442 13.166 20.0642 13.166C20.8202 13.166 21.4802 13.286 22.0442 13.526C22.6202 13.754 23.0942 14.06 23.4662 14.444C23.8502 14.816 24.1322 15.23 24.3122 15.686C24.5042 16.142 24.6002 16.598 24.6002 17.054C24.6002 17.726 24.4382 18.356 24.1142 18.944C23.7902 19.532 23.3642 20.066 22.8362 20.546L19.5602 23.642H24.8342V26H14.7002Z" fill="#271E1E"/>
</svg>
