<svg width="40" height="40" viewBox="0 0 40 40" fill="none" xmlns="http://www.w3.org/2000/svg">
<path d="M11.6444 25.7194V23.8434L10.3564 24.4594V22.7654L11.6444 22.1634V19.6014L10.3564 20.2174V18.5374L11.6444 17.9074V15.7094H12.8624V17.3754L14.3884 16.6334V14.2814H15.5924V16.1014L16.8944 15.4994V17.1654L15.5924 17.7814V20.3574L16.8944 19.7834V21.4774L15.5924 22.0374V24.4314H14.3884V22.5694L12.8624 23.2974V25.7194H11.6444ZM12.8624 21.6314L14.3884 20.8894V18.3274L12.8624 19.0694V21.6314Z" fill="#271E1E"/>
<path d="M18.0145 23.6784L25.2325 13.4004H26.9785V26.0004H24.3325V22.8324L24.5485 22.6344V17.5044L21.5785 21.7524H26.0785L26.3845 21.4824H28.9585V23.6784H18.0145Z" fill="#271E1E"/>
</svg>
