<svg width="40" height="40" viewBox="0 0 40 40" fill="none" xmlns="http://www.w3.org/2000/svg">
<path d="M11.168 25.5705V14.4285H12.572V24.8685L11.888 24.3465C12.164 24.3585 12.428 24.3345 12.68 24.2745C12.944 24.2025 13.184 24.0945 13.4 23.9505C13.628 23.8065 13.814 23.6325 13.958 23.4285C14.126 23.2365 14.246 23.0265 14.318 22.7985C14.39 22.5585 14.426 22.3125 14.426 22.0605C14.426 21.7725 14.378 21.5685 14.282 21.4485C14.186 21.3285 14.06 21.2685 13.904 21.2685C13.64 21.2685 13.37 21.3885 13.094 21.6285C12.818 21.8565 12.59 22.1325 12.41 22.4565L12.194 21.2865C12.47 20.7705 12.812 20.3865 13.22 20.1345C13.628 19.8825 14.03 19.7565 14.426 19.7565C14.942 19.7565 15.344 19.9485 15.632 20.3325C15.932 20.7045 16.082 21.2085 16.082 21.8445C16.082 22.5885 15.878 23.2485 15.47 23.8245C15.062 24.4005 14.498 24.8505 13.778 25.1745C13.454 25.3185 13.124 25.4205 12.788 25.4805C12.452 25.5405 12.092 25.5705 11.708 25.5705H11.168Z" fill="#271E1E"/>
<path d="M20.7383 21.6615C20.7383 22.1415 20.8403 22.5615 21.0443 22.9215C21.2483 23.2695 21.5243 23.5455 21.8723 23.7495C22.2323 23.9415 22.6343 24.0375 23.0783 24.0375C23.5223 24.0375 23.9183 23.9415 24.2663 23.7495C24.6263 23.5455 24.9083 23.2695 25.1123 22.9215C25.3163 22.5615 25.4183 22.1415 25.4183 21.6615C25.4183 21.1935 25.3163 20.7795 25.1123 20.4195C24.9083 20.0475 24.6263 19.7655 24.2663 19.5735C23.9183 19.3695 23.5223 19.2675 23.0783 19.2675C22.6343 19.2675 22.2323 19.3695 21.8723 19.5735C21.5243 19.7655 21.2483 20.0475 21.0443 20.4195C20.8403 20.7795 20.7383 21.1935 20.7383 21.6615ZM23.2943 13.4355H26.5523L22.5203 18.1875L22.0523 18.3495C22.3643 18.0255 22.6703 17.8155 22.9703 17.7195C23.2823 17.6235 23.6603 17.5755 24.1043 17.5755C24.5843 17.5755 25.0523 17.6715 25.5083 17.8635C25.9763 18.0555 26.3903 18.3315 26.7503 18.6915C27.1103 19.0515 27.3983 19.4835 27.6143 19.9875C27.8303 20.4915 27.9383 21.0495 27.9383 21.6615C27.9383 22.6455 27.7163 23.4795 27.2723 24.1635C26.8403 24.8475 26.2583 25.3695 25.5263 25.7295C24.7943 26.0775 23.9783 26.2515 23.0783 26.2515C22.1783 26.2515 21.3623 26.0775 20.6303 25.7295C19.8983 25.3695 19.3103 24.8475 18.8663 24.1635C18.4343 23.4795 18.2183 22.6455 18.2183 21.6615C18.2183 21.0375 18.3383 20.4615 18.5783 19.9335C18.8183 19.3935 19.1183 18.8955 19.4783 18.4395L23.2943 13.4355Z" fill="#271E1E"/>
</svg>
