<svg width="40" height="40" viewBox="0 0 40 40" fill="none" xmlns="http://www.w3.org/2000/svg">
<path d="M11.668 25.5706V14.4286H13.072V24.8686L12.388 24.3466C12.664 24.3586 12.928 24.3346 13.18 24.2746C13.444 24.2026 13.684 24.0946 13.9 23.9506C14.128 23.8066 14.314 23.6326 14.458 23.4286C14.626 23.2366 14.746 23.0266 14.818 22.7986C14.89 22.5586 14.926 22.3126 14.926 22.0606C14.926 21.7726 14.878 21.5686 14.782 21.4486C14.686 21.3286 14.56 21.2686 14.404 21.2686C14.14 21.2686 13.87 21.3886 13.594 21.6286C13.318 21.8566 13.09 22.1326 12.91 22.4566L12.694 21.2866C12.97 20.7706 13.312 20.3866 13.72 20.1346C14.128 19.8826 14.53 19.7566 14.926 19.7566C15.442 19.7566 15.844 19.9486 16.132 20.3326C16.432 20.7046 16.582 21.2086 16.582 21.8446C16.582 22.5886 16.378 23.2486 15.97 23.8246C15.562 24.4006 14.998 24.8506 14.278 25.1746C13.954 25.3186 13.624 25.4206 13.288 25.4806C12.952 25.5406 12.592 25.5706 12.208 25.5706H11.668Z" fill="#271E1E"/>
<path d="M22.4157 19.8616V18.6196C22.7877 18.6196 23.1177 18.5716 23.4057 18.4756C23.7057 18.3796 23.9577 18.2476 24.1617 18.0796C24.3657 17.8996 24.5217 17.7016 24.6297 17.4856C24.7497 17.2576 24.8097 17.0236 24.8097 16.7836C24.8097 16.4836 24.7497 16.2196 24.6297 15.9916C24.5097 15.7636 24.3357 15.5896 24.1077 15.4696C23.8797 15.3496 23.5857 15.2896 23.2257 15.2896C22.7217 15.2896 22.2957 15.4456 21.9477 15.7576C21.6117 16.0576 21.4437 16.4416 21.4437 16.9096H19.0497C19.0497 16.1896 19.2237 15.5536 19.5717 15.0016C19.9317 14.4376 20.4237 13.9936 21.0477 13.6696C21.6717 13.3456 22.3977 13.1836 23.2257 13.1836C24.1017 13.1836 24.8457 13.3396 25.4577 13.6516C26.0817 13.9636 26.5557 14.3776 26.8797 14.8936C27.2037 15.4096 27.3657 15.9856 27.3657 16.6216C27.3657 17.3056 27.1497 17.8936 26.7177 18.3856C26.2857 18.8656 25.6977 19.2316 24.9537 19.4836C24.2097 19.7356 23.3637 19.8616 22.4157 19.8616ZM23.1177 26.2516C22.3977 26.2516 21.7557 26.1436 21.1917 25.9276C20.6277 25.7116 20.1477 25.4176 19.7517 25.0456C19.3557 24.6616 19.0497 24.2296 18.8337 23.7496C18.6177 23.2576 18.5097 22.7416 18.5097 22.2016H21.0657C21.0657 22.6096 21.1617 22.9576 21.3537 23.2456C21.5457 23.5336 21.8037 23.7556 22.1277 23.9116C22.4517 24.0556 22.8057 24.1276 23.1897 24.1276C23.5857 24.1276 23.9277 24.0616 24.2157 23.9296C24.5157 23.7856 24.7497 23.5816 24.9177 23.3176C25.0857 23.0536 25.1697 22.7236 25.1697 22.3276C25.1697 22.0396 25.1097 21.7756 24.9897 21.5356C24.8697 21.2836 24.6897 21.0736 24.4497 20.9056C24.2217 20.7376 23.9337 20.6116 23.5857 20.5276C23.2497 20.4316 22.8597 20.3836 22.4157 20.3836V19.0156C23.1837 19.0156 23.8857 19.0816 24.5217 19.2136C25.1697 19.3456 25.7337 19.5616 26.2137 19.8616C26.6937 20.1496 27.0657 20.5216 27.3297 20.9776C27.5937 21.4216 27.7257 21.9616 27.7257 22.5976C27.7257 23.3176 27.5337 23.9536 27.1497 24.5056C26.7777 25.0576 26.2437 25.4896 25.5477 25.8016C24.8637 26.1016 24.0537 26.2516 23.1177 26.2516Z" fill="#271E1E"/>
</svg>
