<svg width="40" height="40" viewBox="0 0 40 40" fill="none" xmlns="http://www.w3.org/2000/svg">
<path d="M17.6636 21.6615C17.6636 22.1415 17.7656 22.5615 17.9696 22.9215C18.1736 23.2695 18.4496 23.5455 18.7976 23.7495C19.1576 23.9415 19.5596 24.0375 20.0036 24.0375C20.4476 24.0375 20.8436 23.9415 21.1916 23.7495C21.5516 23.5455 21.8336 23.2695 22.0376 22.9215C22.2416 22.5615 22.3436 22.1415 22.3436 21.6615C22.3436 21.1935 22.2416 20.7795 22.0376 20.4195C21.8336 20.0475 21.5516 19.7655 21.1916 19.5735C20.8436 19.3695 20.4476 19.2675 20.0036 19.2675C19.5596 19.2675 19.1576 19.3695 18.7976 19.5735C18.4496 19.7655 18.1736 20.0475 17.9696 20.4195C17.7656 20.7795 17.6636 21.1935 17.6636 21.6615ZM20.2196 13.4355H23.4776L19.4456 18.1875L18.9776 18.3495C19.2896 18.0255 19.5956 17.8155 19.8956 17.7195C20.2076 17.6235 20.5856 17.5755 21.0296 17.5755C21.5096 17.5755 21.9776 17.6715 22.4336 17.8635C22.9016 18.0555 23.3156 18.3315 23.6756 18.6915C24.0356 19.0515 24.3236 19.4835 24.5396 19.9875C24.7556 20.4915 24.8636 21.0495 24.8636 21.6615C24.8636 22.6455 24.6416 23.4795 24.1976 24.1635C23.7656 24.8475 23.1836 25.3695 22.4516 25.7295C21.7196 26.0775 20.9036 26.2515 20.0036 26.2515C19.1036 26.2515 18.2876 26.0775 17.5556 25.7295C16.8236 25.3695 16.2356 24.8475 15.7916 24.1635C15.3596 23.4795 15.1436 22.6455 15.1436 21.6615C15.1436 21.0375 15.2636 20.4615 15.5036 19.9335C15.7436 19.3935 16.0436 18.8955 16.4036 18.4395L20.2196 13.4355Z" fill="#271E1E"/>
</svg>
