<svg width="40" height="40" viewBox="0 0 40 40" fill="none" xmlns="http://www.w3.org/2000/svg">
<path d="M11.168 25.571V14.429H12.572V24.869L11.888 24.347C12.164 24.359 12.428 24.335 12.68 24.275C12.944 24.203 13.184 24.095 13.4 23.951C13.628 23.807 13.814 23.633 13.958 23.429C14.126 23.237 14.246 23.027 14.318 22.799C14.39 22.559 14.426 22.313 14.426 22.061C14.426 21.773 14.378 21.569 14.282 21.449C14.186 21.329 14.06 21.269 13.904 21.269C13.64 21.269 13.37 21.389 13.094 21.629C12.818 21.857 12.59 22.133 12.41 22.457L12.194 21.287C12.47 20.771 12.812 20.387 13.22 20.135C13.628 19.883 14.03 19.757 14.426 19.757C14.942 19.757 15.344 19.949 15.632 20.333C15.932 20.705 16.082 21.209 16.082 21.845C16.082 22.589 15.878 23.249 15.47 23.825C15.062 24.401 14.498 24.851 13.778 25.175C13.454 25.319 13.124 25.421 12.788 25.481C12.452 25.541 12.092 25.571 11.708 25.571H11.168Z" fill="#271E1E"/>
<path d="M17.8717 26L23.5957 20.024C23.9197 19.676 24.1957 19.352 24.4237 19.052C24.6517 18.752 24.8257 18.452 24.9457 18.152C25.0657 17.852 25.1257 17.54 25.1257 17.216C25.1257 16.988 25.0837 16.766 24.9997 16.55C24.9157 16.334 24.7897 16.142 24.6217 15.974C24.4537 15.806 24.2497 15.674 24.0097 15.578C23.7697 15.47 23.4937 15.416 23.1817 15.416C22.7377 15.416 22.3537 15.524 22.0297 15.74C21.7177 15.944 21.4717 16.238 21.2917 16.622C21.1237 17.006 21.0397 17.45 21.0397 17.954H18.5197C18.5197 17.054 18.6997 16.244 19.0597 15.524C19.4197 14.804 19.9477 14.234 20.6437 13.814C21.3517 13.382 22.2157 13.166 23.2357 13.166C23.9917 13.166 24.6517 13.286 25.2157 13.526C25.7917 13.754 26.2657 14.06 26.6377 14.444C27.0217 14.816 27.3037 15.23 27.4837 15.686C27.6757 16.142 27.7717 16.598 27.7717 17.054C27.7717 17.726 27.6097 18.356 27.2857 18.944C26.9617 19.532 26.5357 20.066 26.0077 20.546L22.7317 23.642H28.0057V26H17.8717Z" fill="#271E1E"/>
</svg>
