<svg width="40" height="40" viewBox="0 0 40 40" fill="none" xmlns="http://www.w3.org/2000/svg">
<path d="M19.4539 19.8616V18.6196C19.8259 18.6196 20.1559 18.5716 20.4439 18.4756C20.7439 18.3796 20.9959 18.2476 21.1999 18.0796C21.4039 17.8996 21.5599 17.7016 21.6679 17.4856C21.7879 17.2576 21.8479 17.0236 21.8479 16.7836C21.8479 16.4836 21.7879 16.2196 21.6679 15.9916C21.5479 15.7636 21.3739 15.5896 21.1459 15.4696C20.9179 15.3496 20.6239 15.2896 20.2639 15.2896C19.7599 15.2896 19.3339 15.4456 18.9859 15.7576C18.6499 16.0576 18.4819 16.4416 18.4819 16.9096H16.0879C16.0879 16.1896 16.2619 15.5536 16.6099 15.0016C16.9699 14.4376 17.4619 13.9936 18.0859 13.6696C18.7099 13.3456 19.4359 13.1836 20.2639 13.1836C21.1399 13.1836 21.8839 13.3396 22.4959 13.6516C23.1199 13.9636 23.5939 14.3776 23.9179 14.8936C24.2419 15.4096 24.4039 15.9856 24.4039 16.6216C24.4039 17.3056 24.1879 17.8936 23.7559 18.3856C23.3239 18.8656 22.7359 19.2316 21.9919 19.4836C21.2479 19.7356 20.4019 19.8616 19.4539 19.8616ZM20.1559 26.2516C19.4359 26.2516 18.7939 26.1436 18.2299 25.9276C17.6659 25.7116 17.1859 25.4176 16.7899 25.0456C16.3939 24.6616 16.0879 24.2296 15.8719 23.7496C15.6559 23.2576 15.5479 22.7416 15.5479 22.2016H18.1039C18.1039 22.6096 18.1999 22.9576 18.3919 23.2456C18.5839 23.5336 18.8419 23.7556 19.1659 23.9116C19.4899 24.0556 19.8439 24.1276 20.2279 24.1276C20.6239 24.1276 20.9659 24.0616 21.2539 23.9296C21.5539 23.7856 21.7879 23.5816 21.9559 23.3176C22.1239 23.0536 22.2079 22.7236 22.2079 22.3276C22.2079 22.0396 22.1479 21.7756 22.0279 21.5356C21.9079 21.2836 21.7279 21.0736 21.4879 20.9056C21.2599 20.7376 20.9719 20.6116 20.6239 20.5276C20.2879 20.4316 19.8979 20.3836 19.4539 20.3836V19.0156C20.2219 19.0156 20.9239 19.0816 21.5599 19.2136C22.2079 19.3456 22.7719 19.5616 23.2519 19.8616C23.7319 20.1496 24.1039 20.5216 24.3679 20.9776C24.6319 21.4216 24.7639 21.9616 24.7639 22.5976C24.7639 23.3176 24.5719 23.9536 24.1879 24.5056C23.8159 25.0576 23.2819 25.4896 22.5859 25.8016C21.9019 26.1016 21.0919 26.2516 20.1559 26.2516Z" fill="#271E1E"/>
</svg>
