<svg width="40" height="40" viewBox="0 0 40 40" fill="none" xmlns="http://www.w3.org/2000/svg">
<path d="M24.8591 21.9324C24.8591 22.6764 24.7211 23.3184 24.4451 23.8584C24.1691 24.3984 23.7971 24.8424 23.3291 25.1904C22.8611 25.5384 22.3391 25.7964 21.7631 25.9644C21.1871 26.1324 20.5931 26.2164 19.9811 26.2164C19.2131 26.2164 18.5231 26.1264 17.9111 25.9464C17.3111 25.7664 16.7831 25.5324 16.3271 25.2444C15.8711 24.9444 15.4691 24.6204 15.1211 24.2724L16.3271 22.2744C16.6271 22.5744 16.9511 22.8444 17.2991 23.0844C17.6591 23.3244 18.0311 23.5164 18.4151 23.6604C18.7991 23.7924 19.1651 23.8584 19.5131 23.8584C20.0531 23.8584 20.5091 23.7744 20.8811 23.6064C21.2651 23.4384 21.5591 23.1984 21.7631 22.8864C21.9671 22.5624 22.0691 22.1664 22.0691 21.6984C22.0691 21.2424 21.9491 20.8584 21.7091 20.5464C21.4811 20.2344 21.1691 20.0004 20.7731 19.8444C20.3891 19.6764 19.9691 19.5924 19.5131 19.5924C19.1771 19.5924 18.8231 19.6224 18.4511 19.6824C18.0791 19.7304 17.6951 19.8204 17.2991 19.9524C16.9151 20.0724 16.5071 20.2524 16.0751 20.4924L17.8031 13.4004H24.6611V15.6324H19.7111L18.9551 18.2244C19.2671 18.0564 19.5971 17.9424 19.9451 17.8824C20.3051 17.8104 20.6711 17.7744 21.0431 17.7744C21.7271 17.7744 22.3571 17.9424 22.9331 18.2784C23.5091 18.6144 23.9711 19.0944 24.3191 19.7184C24.6791 20.3304 24.8591 21.0684 24.8591 21.9324Z" fill="#271E1E"/>
</svg>
