<svg width="40" height="40" viewBox="0 0 40 40" fill="none" xmlns="http://www.w3.org/2000/svg">
<path d="M11.668 25.5714V14.4294H13.072V24.8694L12.388 24.3474C12.664 24.3594 12.928 24.3354 13.18 24.2754C13.444 24.2034 13.684 24.0954 13.9 23.9514C14.128 23.8074 14.314 23.6334 14.458 23.4294C14.626 23.2374 14.746 23.0274 14.818 22.7994C14.89 22.5594 14.926 22.3134 14.926 22.0614C14.926 21.7734 14.878 21.5694 14.782 21.4494C14.686 21.3294 14.56 21.2694 14.404 21.2694C14.14 21.2694 13.87 21.3894 13.594 21.6294C13.318 21.8574 13.09 22.1334 12.91 22.4574L12.694 21.2874C12.97 20.7714 13.312 20.3874 13.72 20.1354C14.128 19.8834 14.53 19.7574 14.926 19.7574C15.442 19.7574 15.844 19.9494 16.132 20.3334C16.432 20.7054 16.582 21.2094 16.582 21.8454C16.582 22.5894 16.378 23.2494 15.97 23.8254C15.562 24.4014 14.998 24.8514 14.278 25.1754C13.954 25.3194 13.624 25.4214 13.288 25.4814C12.952 25.5414 12.592 25.5714 12.208 25.5714H11.668Z" fill="#271E1E"/>
<path d="M18.4481 15.8124V13.4004H28.2761L22.2101 26.0004H19.4381L24.4961 15.8124H18.4481Z" fill="#271E1E"/>
</svg>
