<svg width="40" height="40" viewBox="0 0 40 40" fill="none" xmlns="http://www.w3.org/2000/svg">
<path d="M14.0595 14.3402V12.5162H19.5795C19.6115 13.3695 19.5102 14.1748 19.2755 14.9322C19.0515 15.6895 18.6942 16.3615 18.2035 16.9482C17.7235 17.5242 17.1262 17.9775 16.4115 18.3082C15.6968 18.6388 14.8808 18.8042 13.9635 18.8042C13.0995 18.8042 12.2995 18.6602 11.5635 18.3722C10.8382 18.0842 10.2035 17.6788 9.65949 17.1562C9.12616 16.6335 8.71016 16.0095 8.41149 15.2842C8.12349 14.5588 7.97949 13.7642 7.97949 12.9002C7.97949 12.0362 8.12883 11.2468 8.42749 10.5322C8.73683 9.80684 9.16349 9.18817 9.70749 8.67617C10.2515 8.16417 10.8915 7.76951 11.6275 7.49217C12.3635 7.21484 13.1635 7.07617 14.0275 7.07617C14.7955 7.07617 15.4835 7.18284 16.0915 7.39617C16.7102 7.60951 17.2542 7.90817 17.7235 8.29217C18.2035 8.66551 18.6142 9.11351 18.9555 9.63617L17.0035 10.7722C16.7262 10.2815 16.3368 9.88684 15.8355 9.58817C15.3448 9.27884 14.7422 9.12417 14.0275 9.12417C13.3555 9.12417 12.7422 9.27884 12.1875 9.58817C11.6328 9.88684 11.1902 10.3188 10.8595 10.8842C10.5395 11.4495 10.3795 12.1215 10.3795 12.9002C10.3795 13.6682 10.5395 14.3455 10.8595 14.9322C11.1795 15.5082 11.6115 15.9562 12.1555 16.2762C12.7102 16.5962 13.3342 16.7562 14.0275 16.7562C14.4862 16.7562 14.8968 16.6975 15.2595 16.5802C15.6222 16.4522 15.9315 16.2762 16.1875 16.0522C16.4542 15.8282 16.6782 15.5722 16.8595 15.2842C17.0408 14.9962 17.1795 14.6815 17.2755 14.3402H14.0595Z" fill="#271E1E"/>
<path d="M22.1262 18.0002V16.36L21.0002 16.8986V15.4176L22.1262 14.8912V12.6513L21.0002 13.1899V11.7211L22.1262 11.1703V9.24864H23.1911V10.7052L24.5253 10.0565V8.00017H25.5779V9.59136L26.7162 9.06504V10.5216L25.5779 11.0601V13.3123L26.7162 12.8105V14.2915L25.5779 14.7811V16.8741H24.5253V15.2462L23.1911 15.8827V18.0002H22.1262ZM23.1911 14.4261L24.5253 13.7774V11.5375L23.1911 12.1862V14.4261Z" fill="#271E1E"/>
<path d="M16.4361 30.9562L16.7081 29.1482H22.0841L22.3561 30.9562H16.4361ZM19.3641 25.9322L17.6841 29.7882L17.7321 30.3002L16.2601 33.5002H13.6841L19.3641 21.6442L25.0441 33.5002H22.4521L21.0121 30.3962L21.0441 29.8202L19.3641 25.9322Z" fill="#271E1E"/>
<path d="M26.0002 33.0002V23.0002H27.2603V32.3701L26.6464 31.9016C26.8941 31.9124 27.131 31.8909 27.3572 31.837C27.5941 31.7724 27.8095 31.6755 28.0034 31.5462C28.208 31.417 28.375 31.2608 28.5042 31.0777C28.655 30.9054 28.7627 30.7169 28.8273 30.5123C28.8919 30.2969 28.9242 30.0761 28.9242 29.8499C28.9242 29.5914 28.8812 29.4084 28.795 29.3007C28.7088 29.193 28.5958 29.1391 28.4557 29.1391C28.2188 29.1391 27.9765 29.2468 27.7288 29.4622C27.4811 29.6668 27.2764 29.9145 27.1149 30.2053L26.921 29.1553C27.1687 28.6921 27.4757 28.3475 27.8419 28.1213C28.208 27.8952 28.5688 27.7821 28.9242 27.7821C29.3874 27.7821 29.7482 27.9544 30.0066 28.299C30.2759 28.6329 30.4105 29.0853 30.4105 29.6561C30.4105 30.3238 30.2274 30.9162 29.8612 31.4331C29.4951 31.9501 28.9889 32.354 28.3427 32.6448C28.0519 32.774 27.7557 32.8655 27.4541 32.9194C27.1526 32.9732 26.8295 33.0002 26.4848 33.0002H26.0002Z" fill="#271E1E"/>
</svg>
