<svg width="40" height="40" viewBox="0 0 40 40" fill="none" xmlns="http://www.w3.org/2000/svg">
<path d="M20.2726 21.3204V19.2684H26.4826C26.5186 20.2284 26.4046 21.1344 26.1406 21.9864C25.8886 22.8384 25.4866 23.5944 24.9346 24.2544C24.3946 24.9024 23.7226 25.4124 22.9186 25.7844C22.1146 26.1564 21.1966 26.3424 20.1646 26.3424C19.1926 26.3424 18.2926 26.1804 17.4646 25.8564C16.6486 25.5324 15.9346 25.0764 15.3226 24.4884C14.7226 23.9004 14.2546 23.1984 13.9186 22.3824C13.5946 21.5664 13.4326 20.6724 13.4326 19.7004C13.4326 18.7284 13.6006 17.8404 13.9366 17.0364C14.2846 16.2204 14.7646 15.5244 15.3766 14.9484C15.9886 14.3724 16.7086 13.9284 17.5366 13.6164C18.3646 13.3044 19.2646 13.1484 20.2366 13.1484C21.1006 13.1484 21.8746 13.2684 22.5586 13.5084C23.2546 13.7484 23.8666 14.0844 24.3946 14.5164C24.9346 14.9364 25.3966 15.4404 25.7806 16.0284L23.5846 17.3064C23.2726 16.7544 22.8346 16.3104 22.2706 15.9744C21.7186 15.6264 21.0406 15.4524 20.2366 15.4524C19.4806 15.4524 18.7906 15.6264 18.1666 15.9744C17.5426 16.3104 17.0446 16.7964 16.6726 17.4324C16.3126 18.0684 16.1326 18.8244 16.1326 19.7004C16.1326 20.5644 16.3126 21.3264 16.6726 21.9864C17.0326 22.6344 17.5186 23.1384 18.1306 23.4984C18.7546 23.8584 19.4566 24.0384 20.2366 24.0384C20.7526 24.0384 21.2146 23.9724 21.6226 23.8404C22.0306 23.6964 22.3786 23.4984 22.6666 23.2464C22.9666 22.9944 23.2186 22.7064 23.4226 22.3824C23.6266 22.0584 23.7826 21.7044 23.8906 21.3204H20.2726Z" fill="#271E1E"/>
</svg>
