<svg width="40" height="40" viewBox="0 0 40 40" fill="none" xmlns="http://www.w3.org/2000/svg">
<path d="M17.1718 19.7004C17.1718 20.5284 17.3578 21.2544 17.7298 21.8784C18.1138 22.4904 18.6118 22.9644 19.2238 23.3004C19.8358 23.6244 20.5018 23.7864 21.2218 23.7864C21.8218 23.7864 22.3558 23.7084 22.8238 23.5524C23.2918 23.3964 23.7118 23.1864 24.0838 22.9224C24.4678 22.6584 24.7978 22.3704 25.0738 22.0584V24.9564C24.5578 25.3644 23.9938 25.6824 23.3818 25.9104C22.7818 26.1384 22.0198 26.2524 21.0958 26.2524C20.1358 26.2524 19.2418 26.0964 18.4138 25.7844C17.5978 25.4724 16.8838 25.0224 16.2718 24.4344C15.6718 23.8464 15.2038 23.1564 14.8678 22.3644C14.5438 21.5604 14.3818 20.6724 14.3818 19.7004C14.3818 18.7284 14.5438 17.8464 14.8678 17.0544C15.2038 16.2504 15.6718 15.5544 16.2718 14.9664C16.8838 14.3784 17.5978 13.9284 18.4138 13.6164C19.2418 13.3044 20.1358 13.1484 21.0958 13.1484C22.0198 13.1484 22.7818 13.2624 23.3818 13.4904C23.9938 13.7184 24.5578 14.0364 25.0738 14.4444V17.3424C24.7978 17.0304 24.4678 16.7424 24.0838 16.4784C23.7118 16.2144 23.2918 16.0044 22.8238 15.8484C22.3558 15.6924 21.8218 15.6144 21.2218 15.6144C20.5018 15.6144 19.8358 15.7824 19.2238 16.1184C18.6118 16.4424 18.1138 16.9104 17.7298 17.5224C17.3578 18.1344 17.1718 18.8604 17.1718 19.7004Z" fill="#271E1E"/>
</svg>
