<svg width="40" height="40" viewBox="0 0 40 40" fill="none" xmlns="http://www.w3.org/2000/svg">
<path d="M12.3411 9.30078V7.30078H17.3491V9.30078H12.3411ZM12.3411 13.7168V11.8128H17.1891V13.7168H12.3411ZM10.8691 7.30078H13.0771V18.5008H10.8691V7.30078Z" fill="#271E1E"/>
<path d="M20.1259 18.0008V16.3606L18.9998 16.8992V15.4182L20.1259 14.8918V12.6519L18.9998 13.1905V11.7217L20.1259 11.1709V9.24925H21.1908V10.7058L22.5249 10.0571V8.00078H23.5775V9.59197L24.7159 9.06565V10.5222L23.5775 11.0608V13.3129L24.7159 12.8111V14.2921L23.5775 14.7817V16.8747H22.5249V15.2468L21.1908 15.8833V18.0008H20.1259ZM21.1908 14.4267L22.5249 13.778V11.5381L21.1908 12.1868V14.4267Z" fill="#271E1E"/>
<path d="M18.8707 29.3408V27.5168H24.3907C24.4227 28.3701 24.3213 29.1754 24.0867 29.9328C23.8627 30.6901 23.5053 31.3621 23.0147 31.9488C22.5347 32.5248 21.9373 32.9781 21.2227 33.3088C20.508 33.6395 19.692 33.8048 18.7747 33.8048C17.9107 33.8048 17.1107 33.6608 16.3747 33.3728C15.6493 33.0848 15.0147 32.6795 14.4707 32.1568C13.9373 31.6341 13.5213 31.0101 13.2227 30.2848C12.9347 29.5594 12.7907 28.7648 12.7907 27.9008C12.7907 27.0368 12.94 26.2475 13.2387 25.5328C13.548 24.8074 13.9747 24.1888 14.5187 23.6768C15.0627 23.1648 15.7027 22.7701 16.4387 22.4928C17.1747 22.2154 17.9747 22.0768 18.8387 22.0768C19.6067 22.0768 20.2947 22.1834 20.9027 22.3968C21.5213 22.6101 22.0653 22.9088 22.5347 23.2928C23.0147 23.6661 23.4253 24.1141 23.7667 24.6368L21.8147 25.7728C21.5373 25.2821 21.148 24.8874 20.6467 24.5888C20.156 24.2795 19.5533 24.1248 18.8387 24.1248C18.1667 24.1248 17.5533 24.2795 16.9987 24.5888C16.444 24.8874 16.0013 25.3194 15.6707 25.8848C15.3507 26.4501 15.1907 27.1221 15.1907 27.9008C15.1907 28.6688 15.3507 29.3461 15.6707 29.9328C15.9907 30.5088 16.4227 30.9568 16.9667 31.2768C17.5213 31.5968 18.1453 31.7568 18.8387 31.7568C19.2973 31.7568 19.708 31.6981 20.0707 31.5808C20.4333 31.4528 20.7427 31.2768 20.9987 31.0528C21.2653 30.8288 21.4893 30.5728 21.6707 30.2848C21.852 29.9968 21.9907 29.6821 22.0867 29.3408H18.8707Z" fill="#271E1E"/>
<path d="M25.9998 33.0008V23.0008H27.2599V32.3707L26.646 31.9022C26.8937 31.913 27.1307 31.8915 27.3568 31.8376C27.5938 31.773 27.8092 31.6761 28.0031 31.5468C28.2077 31.4176 28.3746 31.2614 28.5039 31.0783C28.6546 30.906 28.7623 30.7175 28.827 30.5129C28.8916 30.2975 28.9239 30.0767 28.9239 29.8505C28.9239 29.5921 28.8808 29.409 28.7947 29.3013C28.7085 29.1936 28.5954 29.1397 28.4554 29.1397C28.2185 29.1397 27.9761 29.2474 27.7284 29.4628C27.4807 29.6674 27.2761 29.9152 27.1145 30.206L26.9207 29.1559C27.1684 28.6928 27.4753 28.3481 27.8415 28.1219C28.2077 27.8958 28.5685 27.7827 28.9239 27.7827C29.387 27.7827 29.7478 27.955 30.0063 28.2997C30.2755 28.6335 30.4102 29.0859 30.4102 29.6567C30.4102 30.3244 30.2271 30.9168 29.8609 31.4337C29.4947 31.9507 28.9885 32.3546 28.3423 32.6454C28.0515 32.7746 27.7553 32.8662 27.4538 32.92C27.1522 32.9739 26.8291 33.0008 26.4845 33.0008H25.9998Z" fill="#271E1E"/>
</svg>
