<svg width="40" height="40" viewBox="0 0 40 40" fill="none" xmlns="http://www.w3.org/2000/svg">
<path d="M17.6164 19.6104V18.4404H19.6504C20.0224 18.4404 20.3464 18.3804 20.6224 18.2604C20.8984 18.1404 21.1084 17.9664 21.2524 17.7384C21.4084 17.5104 21.4864 17.2404 21.4864 16.9284C21.4864 16.4484 21.3184 16.0824 20.9824 15.8304C20.6584 15.5784 20.2144 15.4524 19.6504 15.4524H18.2644V23.9484H19.9204C20.3524 23.9484 20.7424 23.8884 21.0904 23.7684C21.4384 23.6364 21.7084 23.4324 21.9004 23.1564C22.1044 22.8804 22.2064 22.5264 22.2064 22.0944C22.2064 21.7824 22.1464 21.5184 22.0264 21.3024C21.9184 21.0744 21.7564 20.8884 21.5404 20.7444C21.3364 20.5884 21.0964 20.4804 20.8204 20.4204C20.5444 20.3484 20.2444 20.3124 19.9204 20.3124H17.6164V18.9084H20.1544C20.7664 18.9084 21.3484 18.9744 21.9004 19.1064C22.4644 19.2384 22.9684 19.4484 23.4124 19.7364C23.8564 20.0124 24.2044 20.3724 24.4564 20.8164C24.7204 21.2604 24.8524 21.7944 24.8524 22.4184C24.8524 23.2464 24.6544 23.9244 24.2584 24.4524C23.8744 24.9804 23.3284 25.3704 22.6204 25.6224C21.9124 25.8744 21.0904 26.0004 20.1544 26.0004H15.6904V13.4004H19.8844C20.7244 13.4004 21.4624 13.5204 22.0984 13.7604C22.7344 13.9884 23.2324 14.3364 23.5924 14.8044C23.9524 15.2724 24.1324 15.8664 24.1324 16.5864C24.1324 17.2224 23.9524 17.7684 23.5924 18.2244C23.2324 18.6804 22.7344 19.0284 22.0984 19.2684C21.4624 19.4964 20.7244 19.6104 19.8844 19.6104H17.6164Z" fill="#271E1E"/>
</svg>
