<svg width="40" height="40" viewBox="0 0 40 40" fill="none" xmlns="http://www.w3.org/2000/svg">
<path d="M14.9258 13.4004H17.5538V26.0004H14.9258V13.4004ZM19.2098 26.0004H16.5818V23.6604H19.1198C19.6718 23.6604 20.1938 23.5884 20.6858 23.4444C21.1778 23.2884 21.6098 23.0484 21.9818 22.7244C22.3538 22.4004 22.6418 21.9924 22.8458 21.5004C23.0618 20.9964 23.1698 20.3964 23.1698 19.7004C23.1698 19.0044 23.0618 18.4104 22.8458 17.9184C22.6418 17.4144 22.3538 17.0004 21.9818 16.6764C21.6098 16.3524 21.1778 16.1184 20.6858 15.9744C20.1938 15.8184 19.6718 15.7404 19.1198 15.7404H16.5818V13.4004H19.2098C20.5298 13.4004 21.6818 13.6584 22.6658 14.1744C23.6618 14.6904 24.4358 15.4224 24.9878 16.3704C25.5398 17.3064 25.8158 18.4164 25.8158 19.7004C25.8158 20.9844 25.5398 22.1004 24.9878 23.0484C24.4358 23.9844 23.6618 24.7104 22.6658 25.2264C21.6818 25.7424 20.5298 26.0004 19.2098 26.0004Z" fill="#271E1E"/>
</svg>
