<svg width="40" height="40" viewBox="0 0 40 40" fill="none" xmlns="http://www.w3.org/2000/svg">
<path d="M9.99414 7.30078H12.3301V18.5008H9.99414V7.30078ZM13.8021 18.5008H11.4661V16.4208H13.7221C14.2128 16.4208 14.6768 16.3568 15.1141 16.2288C15.5515 16.0901 15.9355 15.8768 16.2661 15.5888C16.5968 15.3008 16.8528 14.9381 17.0341 14.5008C17.2261 14.0528 17.3221 13.5194 17.3221 12.9008C17.3221 12.2821 17.2261 11.7541 17.0341 11.3168C16.8528 10.8688 16.5968 10.5008 16.2661 10.2128C15.9355 9.92478 15.5515 9.71678 15.1141 9.58878C14.6768 9.45011 14.2128 9.38078 13.7221 9.38078H11.4661V7.30078H13.8021C14.9755 7.30078 15.9995 7.53011 16.8741 7.98878C17.7595 8.44745 18.4475 9.09811 18.9381 9.94078C19.4288 10.7728 19.6741 11.7594 19.6741 12.9008C19.6741 14.0421 19.4288 15.0341 18.9381 15.8768C18.4475 16.7088 17.7595 17.3541 16.8741 17.8128C15.9995 18.2714 14.9755 18.5008 13.8021 18.5008Z" fill="#271E1E"/>
<path d="M22.1259 18.0008V16.3606L20.9998 16.8992V15.4182L22.1259 14.8918V12.6519L20.9998 13.1905V11.7217L22.1259 11.1709V9.24925H23.1908V10.7058L24.5249 10.0571V8.00078H25.5775V9.59197L26.7159 9.06565V10.5222L25.5775 11.0608V13.3129L26.7159 12.8111V14.2921L25.5775 14.7817V16.8747H24.5249V15.2468L23.1908 15.8833V18.0008H22.1259ZM23.1908 14.4267L24.5249 13.778V11.5381L23.1908 12.1868V14.4267Z" fill="#271E1E"/>
<path d="M18.3558 33.5008V31.5648H24.0038V33.5008H18.3558ZM18.3558 24.2368V22.3008H24.0038V24.2368H18.3558ZM18.3558 28.5088V26.6048H23.6838V28.5088H18.3558ZM16.8838 22.3008H19.0918V33.5008H16.8838V22.3008Z" fill="#271E1E"/>
<path d="M25.9998 33.0008V23.0008H27.2599V32.3707L26.646 31.9022C26.8937 31.913 27.1307 31.8915 27.3568 31.8376C27.5938 31.773 27.8092 31.6761 28.0031 31.5468C28.2077 31.4176 28.3746 31.2614 28.5039 31.0783C28.6546 30.906 28.7623 30.7175 28.827 30.5129C28.8916 30.2975 28.9239 30.0767 28.9239 29.8505C28.9239 29.5921 28.8808 29.409 28.7947 29.3013C28.7085 29.1936 28.5954 29.1397 28.4554 29.1397C28.2185 29.1397 27.9761 29.2474 27.7284 29.4628C27.4807 29.6674 27.2761 29.9152 27.1145 30.206L26.9207 29.1559C27.1684 28.6928 27.4753 28.3481 27.8415 28.1219C28.2077 27.8958 28.5685 27.7827 28.9239 27.7827C29.387 27.7827 29.7478 27.955 30.0063 28.2997C30.2755 28.6335 30.4102 29.0859 30.4102 29.6567C30.4102 30.3244 30.2271 30.9168 29.8609 31.4337C29.4947 31.9507 28.9885 32.3546 28.3423 32.6454C28.0515 32.7746 27.7553 32.8662 27.4538 32.92C27.1522 32.9739 26.8291 33.0008 26.4845 33.0008H25.9998Z" fill="#271E1E"/>
</svg>
