<svg width="40" height="40" viewBox="0 0 40 40" fill="none" xmlns="http://www.w3.org/2000/svg">
<path d="M11.6241 15.9565L11.8961 14.1485H17.2721L17.5441 15.9565H11.6241ZM14.5521 10.9325L12.8721 14.7885L12.9201 15.3005L11.4481 18.5005H8.87207L14.5521 6.64453L20.2321 18.5005H17.6401L16.2001 15.3965L16.2321 14.8205L14.5521 10.9325Z" fill="#271E1E"/>
<path d="M22.1257 18.0005V16.3604L20.9996 16.8989V15.4179L22.1257 14.8916V12.6517L20.9996 13.1903V11.7215L22.1257 11.1707V9.249H23.1906V10.7056L24.5247 10.0568V8.00053H25.5773V9.59172L26.7157 9.0654V10.522L25.5773 11.0605V13.3126L26.7157 12.8108V14.2918L25.5773 14.7814V16.8745H24.5247V15.2466L23.1906 15.883V18.0005H22.1257ZM23.1906 14.4265L24.5247 13.7778V11.5379L23.1906 12.1866V14.4265Z" fill="#271E1E"/>
<path d="M17.8768 27.8205V26.7805H19.6848C20.0155 26.7805 20.3035 26.7272 20.5488 26.6205C20.7942 26.5139 20.9808 26.3592 21.1088 26.1565C21.2475 25.9539 21.3168 25.7139 21.3168 25.4365C21.3168 25.0099 21.1675 24.6845 20.8688 24.4605C20.5808 24.2365 20.1862 24.1245 19.6848 24.1245H18.4528V31.6765H19.9248C20.3088 31.6765 20.6555 31.6232 20.9648 31.5165C21.2742 31.3992 21.5142 31.2179 21.6848 30.9725C21.8662 30.7272 21.9568 30.4125 21.9568 30.0285C21.9568 29.7512 21.9035 29.5165 21.7968 29.3245C21.7008 29.1219 21.5568 28.9565 21.3648 28.8285C21.1835 28.6899 20.9702 28.5939 20.7248 28.5405C20.4795 28.4765 20.2128 28.4445 19.9248 28.4445H17.8768V27.1965H20.1328C20.6768 27.1965 21.1942 27.2552 21.6848 27.3725C22.1862 27.4899 22.6342 27.6765 23.0288 27.9325C23.4235 28.1779 23.7328 28.4979 23.9568 28.8925C24.1915 29.2872 24.3088 29.7619 24.3088 30.3165C24.3088 31.0525 24.1328 31.6552 23.7808 32.1245C23.4395 32.5939 22.9542 32.9405 22.3248 33.1645C21.6955 33.3885 20.9648 33.5005 20.1328 33.5005H16.1648V22.3005H19.8928C20.6395 22.3005 21.2955 22.4072 21.8608 22.6205C22.4262 22.8232 22.8688 23.1325 23.1888 23.5485C23.5088 23.9645 23.6688 24.4925 23.6688 25.1325C23.6688 25.6979 23.5088 26.1832 23.1888 26.5885C22.8688 26.9939 22.4262 27.3032 21.8608 27.5165C21.2955 27.7192 20.6395 27.8205 19.8928 27.8205H17.8768Z" fill="#271E1E"/>
<path d="M25.9996 33.0005V23.0005H27.2597V32.3705L26.6458 31.902C26.8935 31.9128 27.1305 31.8912 27.3567 31.8374C27.5936 31.7727 27.809 31.6758 28.0029 31.5466C28.2075 31.4173 28.3744 31.2612 28.5037 31.0781C28.6544 30.9058 28.7621 30.7173 28.8268 30.5126C28.8914 30.2972 28.9237 30.0765 28.9237 29.8503C28.9237 29.5918 28.8806 29.4087 28.7945 29.301C28.7083 29.1933 28.5952 29.1395 28.4552 29.1395C28.2183 29.1395 27.9759 29.2472 27.7282 29.4626C27.4805 29.6672 27.2759 29.9149 27.1143 30.2057L26.9205 29.1556C27.1682 28.6925 27.4751 28.3479 27.8413 28.1217C28.2075 27.8955 28.5683 27.7824 28.9237 27.7824C29.3868 27.7824 29.7476 27.9548 30.0061 28.2994C30.2753 28.6333 30.41 29.0856 30.41 29.6564C30.41 30.3242 30.2269 30.9165 29.8607 31.4335C29.4945 31.9505 28.9883 32.3543 28.3421 32.6451C28.0513 32.7744 27.7551 32.8659 27.4536 32.9198C27.152 32.9736 26.8289 33.0005 26.4843 33.0005H25.9996Z" fill="#271E1E"/>
</svg>
