<svg width="40" height="40" viewBox="0 0 40 40" fill="none" xmlns="http://www.w3.org/2000/svg">
<path d="M12.147 12.9002C12.147 13.6362 12.3123 14.2815 12.643 14.8362C12.9843 15.3802 13.427 15.8015 13.971 16.1002C14.515 16.3882 15.107 16.5322 15.747 16.5322C16.2803 16.5322 16.755 16.4628 17.171 16.3242C17.587 16.1855 17.9603 15.9988 18.291 15.7642C18.6323 15.5295 18.9257 15.2735 19.171 14.9962V17.5722C18.7123 17.9348 18.211 18.2175 17.667 18.4202C17.1337 18.6228 16.4563 18.7242 15.635 18.7242C14.7817 18.7242 13.987 18.5855 13.251 18.3082C12.5257 18.0308 11.891 17.6308 11.347 17.1082C10.8137 16.5855 10.3977 15.9722 10.099 15.2682C9.81099 14.5535 9.66699 13.7642 9.66699 12.9002C9.66699 12.0362 9.81099 11.2522 10.099 10.5482C10.3977 9.83351 10.8137 9.21484 11.347 8.69217C11.891 8.16951 12.5257 7.76951 13.251 7.49217C13.987 7.21484 14.7817 7.07617 15.635 7.07617C16.4563 7.07617 17.1337 7.17751 17.667 7.38017C18.211 7.58284 18.7123 7.86551 19.171 8.22817V10.8042C18.9257 10.5268 18.6323 10.2708 18.291 10.0362C17.9603 9.80151 17.587 9.61484 17.171 9.47617C16.755 9.33751 16.2803 9.26817 15.747 9.26817C15.107 9.26817 14.515 9.41751 13.971 9.71617C13.427 10.0042 12.9843 10.4202 12.643 10.9642C12.3123 11.5082 12.147 12.1535 12.147 12.9002Z" fill="#271E1E"/>
<path d="M22.1262 18.0002V16.36L21.0002 16.8986V15.4176L22.1262 14.8912V12.6513L21.0002 13.1899V11.7211L22.1262 11.1703V9.24864H23.1911V10.7052L24.5253 10.0565V8.00017H25.5779V9.59136L26.7162 9.06504V10.5216L25.5779 11.0601V13.3123L26.7162 12.8105V14.2915L25.5779 14.7811V16.8741H24.5253V15.2462L23.1911 15.8827V18.0002H22.1262ZM23.1911 14.4261L24.5253 13.7774V11.5375L23.1911 12.1862V14.4261Z" fill="#271E1E"/>
<path d="M14.806 22.3002H17.142V33.5002H14.806V22.3002ZM18.614 33.5002H16.278V31.4202H18.534C19.0247 31.4202 19.4887 31.3562 19.926 31.2282C20.3633 31.0895 20.7473 30.8762 21.078 30.5882C21.4087 30.3002 21.6647 29.9375 21.846 29.5002C22.038 29.0522 22.134 28.5188 22.134 27.9002C22.134 27.2815 22.038 26.7535 21.846 26.3162C21.6647 25.8682 21.4087 25.5002 21.078 25.2122C20.7473 24.9242 20.3633 24.7162 19.926 24.5882C19.4887 24.4495 19.0247 24.3802 18.534 24.3802H16.278V22.3002H18.614C19.7873 22.3002 20.8113 22.5295 21.686 22.9882C22.5713 23.4468 23.2593 24.0975 23.75 24.9402C24.2407 25.7722 24.486 26.7588 24.486 27.9002C24.486 29.0415 24.2407 30.0335 23.75 30.8762C23.2593 31.7082 22.5713 32.3535 21.686 32.8122C20.8113 33.2708 19.7873 33.5002 18.614 33.5002Z" fill="#271E1E"/>
<path d="M26.0002 33.0002V23.0002H27.2603V32.3701L26.6464 31.9016C26.8941 31.9124 27.131 31.8909 27.3572 31.837C27.5941 31.7724 27.8095 31.6755 28.0034 31.5462C28.208 31.417 28.375 31.2608 28.5042 31.0777C28.655 30.9054 28.7627 30.7169 28.8273 30.5123C28.8919 30.2969 28.9242 30.0761 28.9242 29.8499C28.9242 29.5914 28.8812 29.4084 28.795 29.3007C28.7088 29.193 28.5958 29.1391 28.4557 29.1391C28.2188 29.1391 27.9765 29.2468 27.7288 29.4622C27.4811 29.6668 27.2764 29.9145 27.1149 30.2053L26.921 29.1553C27.1687 28.6921 27.4757 28.3475 27.8419 28.1213C28.208 27.8952 28.5688 27.7821 28.9242 27.7821C29.3874 27.7821 29.7482 27.9544 30.0066 28.299C30.2759 28.6329 30.4105 29.0853 30.4105 29.6561C30.4105 30.3238 30.2274 30.9162 29.8612 31.4331C29.4951 31.9501 28.9889 32.354 28.3427 32.6448C28.0519 32.774 27.7557 32.8655 27.4541 32.9194C27.1526 32.9732 26.8295 33.0002 26.4848 33.0002H26.0002Z" fill="#271E1E"/>
</svg>
